# xmcd CD database file
#
# Track frame offsets:
#	150
#	21730
#	41022
#	63390
#	85755
#	98885
#	124067
#	146875
#	171072
#	192977
#	216092
#	238102
#
# Disc length: 3507 seconds
#
# Revision: 0
# Processed by: cddbd v1.5.1PL0 Copyright (c) Steve Scherf et al.
# Submitted via: CDex 1.60beta1
#
DISCID=b10db10c
DTITLE=Carla Helmbrecht - Be Cool, Be Kind
DYEAR=2001
DGENRE=Jazz
TTITLE0=Be Cool, Be Kind
TTITLE1=Later For Love
TTITLE2=Easy Love
TTITLE3=So Many Stars
TTITLE4=Down With Love
TTITLE5=Even Still
TTITLE6=A Miracle
TTITLE7=Windmills Of Your Mind
TTITLE8=The Touch Of Your Lips
TTITLE9=How I Remember You
TTITLE10=(Song For) A Rainy Afternoon
TTITLE11=The Party's Over
EXTD=YEAR: 2001
EXTT0=
EXTT1=
EXTT2=
EXTT3=
EXTT4=
EXTT5=
EXTT6=
EXTT7=
EXTT8=
EXTT9=
EXTT10=
EXTT11=
PLAYORDER=
